<?xml version="1.0" encoding="iso-8859-1"?>
<!-- Generator: Adobe Illustrator 16.0.0, SVG Export Plug-In . SVG Version: 6.00 Build 0)  -->
<!DOCTYPE svg PUBLIC "-//W3C//DTD SVG 1.1//EN" "http://www.w3.org/Graphics/SVG/1.1/DTD/svg11.dtd">
<svg version="1.1" id="Layer_1" xmlns="http://www.w3.org/2000/svg" xmlns:xlink="http://www.w3.org/1999/xlink" x="0px" y="0px"
	 width="16px" height="32px" viewBox="0 0 16 32" style="enable-background:new 0 0 16 32;" xml:space="preserve">
<g>
	<rect x="13" y="22" style="fill:#868E96;" width="3" height="10"/>
	<g>
		<path style="fill:#868E96;" d="M3,17.422V9.884C3,6.559,5.313,4,7.962,4h0.075c2.047,0,3.889,1.532,4.623,3.762l2.77-2.769
			C14.259,2.068,11.404,0,8.063,0H7.938C3.554,0,0,3.554,0,7.938v12.484L3,17.422z"/>
		<path style="fill:#868E96;" d="M13,13.078v9.037C13,25.441,10.687,28,8.038,28H7.962c-2.404,0-4.525-2.11-4.898-4.986
			l-2.851,2.852C1.031,29.379,4.175,32,7.938,32h0.125C12.446,32,16,28.446,16,24.063V10.078L13,13.078z"/>
	</g>
	<path style="fill:#868E96;" d="M11,19.961C11,22.114,9.74,24,8.024,24H7.976C6.26,24,5,22.114,5,19.961v-7.922
		C5,9.886,6.26,8,7.976,8h0.049C9.74,8,11,9.886,11,12.039V19.961z"/>
	<rect style="fill:#868E96;" width="3" height="10"/>
</g>
</svg>
